<svg version="1.0" xmlns="http://www.w3.org/2000/svg" viewBox="0 0 100.000000 100.000000" preserveAspectRatio="xMidYMid meet">
  <g transform="translate(0.000000,100.000000) scale(0.100000,-0.100000)" fill="#000000" stroke="none">
    <path d="M550 993 c-8 -3 -27 -17 -42 -31 -75 -70 -20 -192 87 -192 97 0 155 92 108 171 -27 46 -101 71 -153 52z"/>
    <path d="M361 636 c-58 -20 -77 -36 -80 -68 -1 -3 25 -4 57 -1 106 10 111 -16 47 -246 -22 -78 -35 -147 -35 -184 0 -53 3 -62 33 -92 25 -25 46 -35 83 -41 88 -13 226 30 232 73 3 21 1 22 -46 16 -30 -3 -57 -1 -72 7 -21 11 -22 17 -17 74 2 33 18 108 35 166 42 143 48 205 25 249 -38 72 -139 90 -262 47z"/>
  </g>
</svg>
